<?xml version="1.0" encoding="UTF-8" standalone="no"?>
<svg
   xmlns:dc="http://purl.org/dc/elements/1.1/"
   xmlns:cc="http://creativecommons.org/ns#"
   xmlns:rdf="http://www.w3.org/1999/02/22-rdf-syntax-ns#"
   xmlns:svg="http://www.w3.org/2000/svg"
   xmlns="http://www.w3.org/2000/svg"
   viewBox="0 0 122.4056 150.01868"
   height="150.01868"
   width="122.4056"
   xml:space="preserve"
   id="svg2"
   version="1.1"><metadata
     id="metadata8"><rdf:RDF><cc:Work
         rdf:about=""><dc:format>image/svg+xml</dc:format><dc:type
           rdf:resource="http://purl.org/dc/dcmitype/StillImage" /></cc:Work></rdf:RDF></metadata><defs
     id="defs6"><clipPath
       id="clipPath18"
       clipPathUnits="userSpaceOnUse"><path
         id="path16"
         d="m 0,112.514 v -2.763 C 0,104.756 0.871,99.998 2.415,95.63 v 0 C 7.348,81.664 19.354,71.79 33.409,71.79 v 0 c 5.61,0 10.894,1.573 15.533,4.352 v 0 c 3.314,1.985 6.297,4.584 8.836,7.665 v 0 c 0.508,0.616 0.997,1.251 1.469,1.905 v 0 c 1.413,1.961 2.657,4.085 3.707,6.343 v 0 c 0.015,0.043 -7.375,1.881 -7.912,1.977 v 0 c -4.573,0.819 -8.53,1.291 -12.819,1.558 v 0 c -5.986,0.373 -11.976,0.642 -17.843,2.423 v 0 c -9.117,2.767 -17.414,7.782 -24.262,14.388 v 0 C 0.071,112.446 0,112.514 0,112.514 Z" /></clipPath><linearGradient
       id="linearGradient28"
       spreadMethod="pad"
       gradientTransform="matrix(69.481781,0,0,-69.481781,-2.5106928,92.15242)"
       gradientUnits="userSpaceOnUse"
       y2="0"
       x2="1"
       y1="0"
       x1="0"><stop
         id="stop24"
         offset="0"
         style="stop-opacity:1;stop-color:#ff0d57" /><stop
         id="stop26"
         offset="1"
         style="stop-opacity:1;stop-color:#112146" /></linearGradient><clipPath
       id="clipPath38"
       clipPathUnits="userSpaceOnUse"><path
         id="path36"
         d="M 0,0 H 0.071 L 0,0.062 Z" /></clipPath><linearGradient
       id="linearGradient48"
       spreadMethod="pad"
       gradientTransform="matrix(0,-95.62986,-95.62986,0,0.0353888,95.629875)"
       gradientUnits="userSpaceOnUse"
       y2="0"
       x2="1"
       y1="0"
       x1="0"><stop
         id="stop44"
         offset="0"
         style="stop-opacity:1;stop-color:#ff0d57" /><stop
         id="stop46"
         offset="1"
         style="stop-opacity:1;stop-color:#112146" /></linearGradient><clipPath
       id="clipPath58"
       clipPathUnits="userSpaceOnUse"><path
         id="path56"
         d="m 43.915,23.938 -1.222,-1.573 c -0.012,-0.017 -0.15,-0.194 -0.428,-0.553 v 0 C 28.256,3.772 2.131,0.319 0.188,0.085 v 0 C 0.113,0.076 0,0.062 0,0.062 v 0 V 0 h 42.214 c 7.992,0 15.223,1.394 21.574,3.929 v 0 c 6.79,11.552 6.625,25.677 0.672,38.86 v 0 C 62.884,32.284 56.128,24.798 43.915,23.938" /></clipPath><linearGradient
       id="linearGradient70"
       spreadMethod="pad"
       gradientTransform="matrix(43.547539,0,0,-43.547539,27.319412,21.394306)"
       gradientUnits="userSpaceOnUse"
       y2="0"
       x2="1"
       y1="0"
       x1="0"><stop
         id="stop64"
         offset="0"
         style="stop-opacity:1;stop-color:#ff0d57" /><stop
         id="stop66"
         offset="0.880976"
         style="stop-opacity:1;stop-color:#112146" /><stop
         id="stop68"
         offset="1"
         style="stop-opacity:1;stop-color:#112146" /></linearGradient><clipPath
       id="clipPath80"
       clipPathUnits="userSpaceOnUse"><path
         id="path78"
         d="m 59.247,85.712 c -0.472,-0.654 -0.961,-1.289 -1.469,-1.905 v 0 c -2.539,-3.081 -5.522,-5.68 -8.836,-7.665 v 0 C 44.303,73.363 39.019,71.79 33.409,71.79 v 0 h 8.122 c 8.656,0 14.831,-3.039 18.643,-8.101 v 0 c 1.717,-2.279 2.918,-4.994 3.676,-8.009 v 0 c -0.049,0.231 -0.088,0.43 -0.143,0.675 v 0 c 8.441,-8.504 18.165,-13.01 27.718,-15.078 v 0 c 0.235,2.121 0.38,4.292 0.38,6.537 v 0 c 0,9.909 -2.353,18.633 -6.622,25.842 v 0 c -4.979,8.41 -12.576,14.751 -22.229,18.399 v 0 c -1.05,-2.258 -2.294,-4.382 -3.707,-6.343" /></clipPath><linearGradient
       id="linearGradient92"
       spreadMethod="pad"
       gradientTransform="matrix(84.02375,14.062553,14.062553,-84.02375,26.725773,58.220303)"
       gradientUnits="userSpaceOnUse"
       y2="0"
       x2="1"
       y1="0"
       x1="0"><stop
         id="stop86"
         offset="0"
         style="stop-opacity:1;stop-color:#ff0d57" /><stop
         id="stop88"
         offset="0.749596"
         style="stop-opacity:1;stop-color:#112146" /><stop
         id="stop90"
         offset="1"
         style="stop-opacity:1;stop-color:#112146" /></linearGradient><clipPath
       id="clipPath102"
       clipPathUnits="userSpaceOnUse"><path
         id="path100"
         d="m 63.85,55.68 c 0.193,-0.766 0.341,-1.56 0.473,-2.366 v 0 c 0.092,-0.515 0.169,-0.983 0.23,-1.405 v 0 c 0.317,-2.183 0.269,-3.235 0.269,-4.095 v 0 c 0,-1.737 -0.121,-3.416 -0.362,-5.025 v 0 C 70.413,29.606 70.578,15.481 63.788,3.929 v 0 c 15.569,6.218 25.662,19.515 27.637,37.348 v 0 c -9.553,2.068 -19.33,6.65 -27.77,15.154 v 0 c 0.055,-0.246 0.146,-0.52 0.195,-0.751" /></clipPath><linearGradient
       id="linearGradient112"
       spreadMethod="pad"
       gradientTransform="matrix(0,-65.852631,-65.852631,0,77.539726,77.130295)"
       gradientUnits="userSpaceOnUse"
       y2="0"
       x2="1"
       y1="0"
       x1="0"><stop
         id="stop108"
         offset="0"
         style="stop-opacity:1;stop-color:#ff0d57" /><stop
         id="stop110"
         offset="1"
         style="stop-opacity:1;stop-color:#112146" /></linearGradient><clipPath
       id="clipPath122"
       clipPathUnits="userSpaceOnUse"><path
         id="path120"
         d="m 0,60.868 c 0,-0.797 0.059,-1.577 0.103,-2.361 v 0 H 0.07 V 23.839 H 0 V 0.062 c 0,0 0.113,0.014 0.188,0.023 v 0 C 2.131,0.32 28.256,3.772 42.265,21.812 v 0 c 0.278,0.359 0.416,0.536 0.428,0.553 v 0 l 1.222,1.573 C 43.63,23.934 35.332,23.914 26.027,23.894 v 0 24.789 c -0.55,0.14 -1.099,0.282 -1.647,0.447 v 0 c -6.637,2.015 -12.832,5.234 -18.358,9.377 v 0 C 3.958,60.055 1.98,61.722 0.118,63.518 v 0 C 0.07,63.563 0,63.632 0,63.632 v 0 z" /></clipPath><linearGradient
       id="linearGradient134"
       spreadMethod="pad"
       gradientTransform="matrix(32.067482,-52.180813,-52.180813,-32.067482,-8.5102987,61.577408)"
       gradientUnits="userSpaceOnUse"
       y2="0"
       x2="1"
       y1="0"
       x1="0"><stop
         id="stop128"
         offset="0"
         style="stop-opacity:1;stop-color:#ff0d57" /><stop
         id="stop130"
         offset="0.749596"
         style="stop-opacity:1;stop-color:#112146" /><stop
         id="stop132"
         offset="1"
         style="stop-opacity:1;stop-color:#112146" /></linearGradient></defs><g
     transform="matrix(1.3333333,0,0,-1.3333333,0,150.01867)"
     id="g10"><g
       id="g12"><g
         clip-path="url(#clipPath18)"
         id="g14"><g
           id="g20"><g
             id="g22"><path
               id="path30"
               style="fill:url(#linearGradient28);stroke:none"
               d="m 0,112.514 v -2.763 C 0,104.756 0.871,99.998 2.415,95.63 v 0 C 7.348,81.664 19.354,71.79 33.409,71.79 v 0 c 5.61,0 10.894,1.573 15.533,4.352 v 0 c 3.314,1.985 6.297,4.584 8.836,7.665 v 0 c 0.508,0.616 0.997,1.251 1.469,1.905 v 0 c 1.413,1.961 2.657,4.085 3.707,6.343 v 0 c 0.015,0.043 -7.375,1.881 -7.912,1.977 v 0 c -4.573,0.819 -8.53,1.291 -12.819,1.558 v 0 c -5.986,0.373 -11.976,0.642 -17.843,2.423 v 0 c -9.117,2.767 -17.414,7.782 -24.262,14.388 v 0 C 0.071,112.446 0,112.514 0,112.514 Z" /></g></g></g></g><g
       id="g32"><g
         clip-path="url(#clipPath38)"
         id="g34"><g
           id="g40"><g
             id="g42"><path
               id="path50"
               style="fill:url(#linearGradient48);stroke:none"
               d="M 0,0 H 0.071 L 0,0.062 Z" /></g></g></g></g><g
       id="g52"><g
         clip-path="url(#clipPath58)"
         id="g54"><g
           id="g60"><g
             id="g62"><path
               id="path72"
               style="fill:url(#linearGradient70);stroke:none"
               d="m 43.915,23.938 -1.222,-1.573 c -0.012,-0.017 -0.15,-0.194 -0.428,-0.553 v 0 C 28.256,3.772 2.131,0.319 0.188,0.085 v 0 C 0.113,0.076 0,0.062 0,0.062 v 0 V 0 h 42.214 c 7.992,0 15.223,1.394 21.574,3.929 v 0 c 6.79,11.552 6.625,25.677 0.672,38.86 v 0 C 62.884,32.284 56.128,24.798 43.915,23.938" /></g></g></g></g><g
       id="g74"><g
         clip-path="url(#clipPath80)"
         id="g76"><g
           id="g82"><g
             id="g84"><path
               id="path94"
               style="fill:url(#linearGradient92);stroke:none"
               d="m 59.247,85.712 c -0.472,-0.654 -0.961,-1.289 -1.469,-1.905 v 0 c -2.539,-3.081 -5.522,-5.68 -8.836,-7.665 v 0 C 44.303,73.363 39.019,71.79 33.409,71.79 v 0 h 8.122 c 8.656,0 14.831,-3.039 18.643,-8.101 v 0 c 1.717,-2.279 2.918,-4.994 3.676,-8.009 v 0 c -0.049,0.231 -0.088,0.43 -0.143,0.675 v 0 c 8.441,-8.504 18.165,-13.01 27.718,-15.078 v 0 c 0.235,2.121 0.38,4.292 0.38,6.537 v 0 c 0,9.909 -2.353,18.633 -6.622,25.842 v 0 c -4.979,8.41 -12.576,14.751 -22.229,18.399 v 0 c -1.05,-2.258 -2.294,-4.382 -3.707,-6.343" /></g></g></g></g><g
       id="g96"><g
         clip-path="url(#clipPath102)"
         id="g98"><g
           id="g104"><g
             id="g106"><path
               id="path114"
               style="fill:url(#linearGradient112);stroke:none"
               d="m 63.85,55.68 c 0.193,-0.766 0.341,-1.56 0.473,-2.366 v 0 c 0.092,-0.515 0.169,-0.983 0.23,-1.405 v 0 c 0.317,-2.183 0.269,-3.235 0.269,-4.095 v 0 c 0,-1.737 -0.121,-3.416 -0.362,-5.025 v 0 C 70.413,29.606 70.578,15.481 63.788,3.929 v 0 c 15.569,6.218 25.662,19.515 27.637,37.348 v 0 c -9.553,2.068 -19.33,6.65 -27.77,15.154 v 0 c 0.055,-0.246 0.146,-0.52 0.195,-0.751" /></g></g></g></g><g
       id="g116"><g
         clip-path="url(#clipPath122)"
         id="g118"><g
           id="g124"><g
             id="g126"><path
               id="path136"
               style="fill:url(#linearGradient134);stroke:none"
               d="m 0,60.868 c 0,-0.797 0.059,-1.577 0.103,-2.361 v 0 H 0.07 V 23.839 H 0 V 0.062 c 0,0 0.113,0.014 0.188,0.023 v 0 C 2.131,0.32 28.256,3.772 42.265,21.812 v 0 c 0.278,0.359 0.416,0.536 0.428,0.553 v 0 l 1.222,1.573 C 43.63,23.934 35.332,23.914 26.027,23.894 v 0 24.789 c -0.55,0.14 -1.099,0.282 -1.647,0.447 v 0 c -6.637,2.015 -12.832,5.234 -18.358,9.377 v 0 C 3.958,60.055 1.98,61.722 0.118,63.518 v 0 C 0.07,63.563 0,63.632 0,63.632 v 0 z" /></g></g></g></g></g></svg>