<?xml version="1.0" encoding="UTF-8" standalone="no"?>
<svg
   xmlns:dc="http://purl.org/dc/elements/1.1/"
   xmlns:cc="http://creativecommons.org/ns#"
   xmlns:rdf="http://www.w3.org/1999/02/22-rdf-syntax-ns#"
   xmlns:svg="http://www.w3.org/2000/svg"
   xmlns="http://www.w3.org/2000/svg"
   viewBox="0 0 415.55466 273.36932"
   height="273.36932"
   width="415.55466"
   xml:space="preserve"
   id="svg2"
   version="1.1"><metadata
     id="metadata8"><rdf:RDF><cc:Work
         rdf:about=""><dc:format>image/svg+xml</dc:format><dc:type
           rdf:resource="http://purl.org/dc/dcmitype/StillImage" /></cc:Work></rdf:RDF></metadata><defs
     id="defs6"><clipPath
       id="clipPath18"
       clipPathUnits="userSpaceOnUse"><path
         id="path16"
         d="M 0,205.027 H 311.666 V 0 H 0 Z" /></clipPath><clipPath
       id="clipPath54"
       clipPathUnits="userSpaceOnUse"><path
         id="path52"
         d="m 109.931,205.027 v -2.764 c 0,-4.995 0.872,-9.752 2.414,-14.121 v 0 c 4.934,-13.965 16.94,-23.839 30.994,-23.839 v 0 c 5.611,0 10.895,1.573 15.534,4.352 v 0 c 3.313,1.984 6.298,4.584 8.836,7.665 v 0 c 0.507,0.616 0.998,1.251 1.468,1.904 v 0 c 1.413,1.961 2.657,4.085 3.708,6.343 v 0 c 0.016,0.044 -7.374,1.882 -7.912,1.978 v 0 c -4.572,0.818 -8.53,1.29 -12.818,1.558 v 0 c -5.988,0.373 -11.976,0.642 -17.844,2.422 v 0 c -9.116,2.768 -17.415,7.782 -24.263,14.389 v 0 c -0.046,0.045 -0.117,0.113 -0.117,0.113 z" /></clipPath><linearGradient
       id="linearGradient64"
       spreadMethod="pad"
       gradientTransform="matrix(69.481781,0,0,-69.481781,107.4202,184.66501)"
       gradientUnits="userSpaceOnUse"
       y2="0"
       x2="1"
       y1="0"
       x1="0"><stop
         id="stop60"
         offset="0"
         style="stop-opacity:1;stop-color:#ff0d57" /><stop
         id="stop62"
         offset="1"
         style="stop-opacity:1;stop-color:#112146" /></linearGradient><clipPath
       id="clipPath74"
       clipPathUnits="userSpaceOnUse"><path
         id="path72"
         d="m 109.931,92.513 h 0.071 l -0.071,0.061 z" /></clipPath><linearGradient
       id="linearGradient84"
       spreadMethod="pad"
       gradientTransform="matrix(0,-95.62986,-95.62986,0,109.96629,188.14246)"
       gradientUnits="userSpaceOnUse"
       y2="0"
       x2="1"
       y1="0"
       x1="0"><stop
         id="stop80"
         offset="0"
         style="stop-opacity:1;stop-color:#ff0d57" /><stop
         id="stop82"
         offset="1"
         style="stop-opacity:1;stop-color:#112146" /></linearGradient><clipPath
       id="clipPath94"
       clipPathUnits="userSpaceOnUse"><path
         id="path92"
         d="m 153.846,116.45 -1.221,-1.572 c -0.014,-0.017 -0.152,-0.195 -0.43,-0.553 v 0 C 138.187,96.285 112.063,92.831 110.12,92.597 v 0 c -0.076,-0.009 -0.189,-0.023 -0.189,-0.023 v 0 -0.061 h 42.213 c 7.993,0 15.224,1.393 21.574,3.929 v 0 c 6.791,11.552 6.626,25.677 0.673,38.859 v 0 c -1.577,-10.504 -8.332,-17.99 -20.545,-18.851" /></clipPath><linearGradient
       id="linearGradient106"
       spreadMethod="pad"
       gradientTransform="matrix(43.547539,0,0,-43.547539,137.25031,113.90689)"
       gradientUnits="userSpaceOnUse"
       y2="0"
       x2="1"
       y1="0"
       x1="0"><stop
         id="stop100"
         offset="0"
         style="stop-opacity:1;stop-color:#ff0d57" /><stop
         id="stop102"
         offset="0.880976"
         style="stop-opacity:1;stop-color:#112146" /><stop
         id="stop104"
         offset="1"
         style="stop-opacity:1;stop-color:#112146" /></linearGradient><clipPath
       id="clipPath116"
       clipPathUnits="userSpaceOnUse"><path
         id="path114"
         d="m 169.177,178.224 c -0.47,-0.653 -0.961,-1.288 -1.468,-1.904 v 0 c -2.538,-3.081 -5.523,-5.681 -8.836,-7.665 v 0 c -4.639,-2.779 -9.923,-4.352 -15.534,-4.352 v 0 h 8.122 c 8.656,0 14.831,-3.04 18.643,-8.101 v 0 c 1.718,-2.28 2.918,-4.995 3.678,-8.009 v 0 c -0.051,0.23 -0.089,0.429 -0.144,0.674 v 0 c 8.44,-8.504 18.165,-13.01 27.717,-15.078 v 0 c 0.235,2.122 0.38,4.293 0.38,6.538 v 0 c 0,9.909 -2.353,18.633 -6.621,25.842 v 0 c -4.98,8.408 -12.576,14.75 -22.229,18.398 v 0 c -1.051,-2.258 -2.295,-4.382 -3.708,-6.343" /></clipPath><linearGradient
       id="linearGradient128"
       spreadMethod="pad"
       gradientTransform="matrix(84.02375,14.062553,14.062553,-84.02375,136.65666,150.73289)"
       gradientUnits="userSpaceOnUse"
       y2="0"
       x2="1"
       y1="0"
       x1="0"><stop
         id="stop122"
         offset="0"
         style="stop-opacity:1;stop-color:#ff0d57" /><stop
         id="stop124"
         offset="0.749596"
         style="stop-opacity:1;stop-color:#112146" /><stop
         id="stop126"
         offset="1"
         style="stop-opacity:1;stop-color:#112146" /></linearGradient><clipPath
       id="clipPath138"
       clipPathUnits="userSpaceOnUse"><path
         id="path136"
         d="m 173.782,148.193 c 0.193,-0.766 0.34,-1.561 0.471,-2.367 v 0 c 0.092,-0.514 0.17,-0.983 0.231,-1.404 v 0 c 0.317,-2.183 0.27,-3.235 0.27,-4.095 v 0 c 0,-1.737 -0.122,-3.416 -0.363,-5.026 v 0 c 5.953,-13.182 6.118,-27.307 -0.673,-38.859 v 0 c 15.57,6.217 25.663,19.515 27.637,37.347 v 0 c -9.552,2.068 -19.329,6.651 -27.769,15.154 v 0 c 0.055,-0.245 0.145,-0.52 0.196,-0.75" /></clipPath><linearGradient
       id="linearGradient148"
       spreadMethod="pad"
       gradientTransform="matrix(0,-65.852631,-65.852631,0,187.47063,169.64288)"
       gradientUnits="userSpaceOnUse"
       y2="0"
       x2="1"
       y1="0"
       x1="0"><stop
         id="stop144"
         offset="0"
         style="stop-opacity:1;stop-color:#ff0d57" /><stop
         id="stop146"
         offset="1"
         style="stop-opacity:1;stop-color:#112146" /></linearGradient><clipPath
       id="clipPath158"
       clipPathUnits="userSpaceOnUse"><path
         id="path156"
         d="m 109.93,153.381 c 0,-0.797 0.06,-1.577 0.103,-2.362 v 0 h -0.031 V 116.352 H 109.93 V 92.574 c 0,0 0.114,0.014 0.19,0.023 v 0 c 1.943,0.234 28.067,3.688 42.075,21.728 v 0 c 0.278,0.358 0.416,0.536 0.43,0.553 v 0 l 1.221,1.573 c -0.285,-0.005 -8.583,-0.024 -17.888,-0.044 v 0 24.788 c -0.549,0.141 -1.099,0.281 -1.647,0.448 v 0 c -6.638,2.015 -12.833,5.233 -18.358,9.376 v 0 c -2.064,1.549 -4.042,3.215 -5.905,5.011 v 0 c -0.046,0.046 -0.118,0.115 -0.118,0.115 v 0 z" /></clipPath><linearGradient
       id="linearGradient170"
       spreadMethod="pad"
       gradientTransform="matrix(32.067482,-52.180813,-52.180813,-32.067482,101.4206,154.09)"
       gradientUnits="userSpaceOnUse"
       y2="0"
       x2="1"
       y1="0"
       x1="0"><stop
         id="stop164"
         offset="0"
         style="stop-opacity:1;stop-color:#ff0d57" /><stop
         id="stop166"
         offset="0.749596"
         style="stop-opacity:1;stop-color:#112146" /><stop
         id="stop168"
         offset="1"
         style="stop-opacity:1;stop-color:#112146" /></linearGradient></defs><g
     transform="matrix(1.3333333,0,0,-1.3333333,0,273.36933)"
     id="g10"><g
       id="g12"><g
         clip-path="url(#clipPath18)"
         id="g14"><g
           transform="translate(11.3994,32.3086)"
           id="g20"><path
             id="path22"
             style="fill:#112146;fill-opacity:1;fill-rule:nonzero;stroke:none"
             d="m 0,0 v -21.059 h 6.84 c 6.899,0 10.229,4.47 10.229,10.529 C 17.069,-4.38 13.739,0 6.84,0 Z m 28.919,-10.53 c 0,-12.659 -8.64,-20.999 -21.779,-20.999 H -11.399 V 10.47 H 7.14 c 13.139,0 21.779,-8.34 21.779,-21" /></g><g
           transform="translate(58.1694,21.7788)"
           id="g24"><path
             id="path26"
             style="fill:#112146;fill-opacity:1;fill-rule:nonzero;stroke:none"
             d="m 0,0 c 0,-6.419 4.229,-10.859 10.35,-10.859 6.119,0 10.349,4.44 10.349,10.859 0,6.42 -4.23,10.86 -10.349,10.86 C 4.229,10.86 0,6.42 0,0 m 32.548,0 c 0,-12.54 -9.209,-21.779 -22.198,-21.779 -12.99,0 -22.2,9.239 -22.2,21.779 0,12.54 9.21,21.779 22.2,21.779 12.989,0 22.198,-9.239 22.198,-21.779" /></g><g
           transform="translate(138.0576,32.9087)"
           id="g28"><path
             id="path30"
             style="fill:#112146;fill-opacity:1;fill-rule:nonzero;stroke:none"
             d="m 0,0 -10.11,-5.58 c -2.039,3.48 -5.16,5.31 -9.239,5.31 -5.82,0 -10.14,-4.44 -10.14,-10.86 0,-7.169 4.98,-10.859 10.17,-10.859 3.989,0 7.199,1.8 9.479,5.28 l 9.36,-6.541 c -3.96,-5.939 -10.38,-9.659 -18.689,-9.659 -12.99,0 -22.169,9 -22.169,21.779 0,12.78 9.179,21.779 22.169,21.779 C -10.95,10.649 -3.66,6.72 0,0" /></g><g
           transform="translate(159.9282,16.8594)"
           id="g32"><path
             id="path34"
             style="fill:#112146;fill-opacity:1;fill-rule:nonzero;stroke:none"
             d="M 0,0 H -3.24 V -16.08 H -14.639 V 25.919 H -3.24 v -15.78 h 3.301 l 10.588,15.78 h 13.86 L 9.3,5.43 25.859,-16.08 H 11.85 Z" /></g><g
           transform="translate(220.167,29.7886)"
           id="g36"><path
             id="path38"
             style="fill:#112146;fill-opacity:1;fill-rule:nonzero;stroke:none"
             d="m 0,0 c -2.76,1.56 -6.93,3.51 -12.119,3.51 -3.061,0 -5.401,-0.84 -5.401,-2.73 0,-2.37 4.291,-2.61 8.581,-3.45 l 1.349,-0.27 c 8.67,-1.68 13.08,-5.85 13.08,-12.299 0,-10.62 -8.969,-14.55 -17.91,-14.55 -7.529,0 -14.369,1.8 -19.169,5.22 l 5.58,9.299 c 3.33,-2.009 7.35,-4.319 13.739,-4.319 3.06,0 5.31,0.84 5.31,2.91 0,2.19 -2.609,2.579 -7.829,3.48 l -1.59,0.27 c -9.66,1.65 -13.68,5.819 -13.47,13.259 0.21,8.04 6.96,13.409 17.039,13.409 5.491,0 10.44,-0.57 17.73,-4.409 z" /></g><g
           transform="translate(246.8682,18.959)"
           id="g40"><path
             id="path42"
             style="fill:#112146;fill-opacity:1;fill-rule:nonzero;stroke:none"
             d="M 0,0 H 8.609 L 4.319,12.419 Z M 27.028,-18.179 H 14.939 l -2.79,8.01 H -3.54 l -2.76,-8.01 H -18.209 L -2.31,23.819 h 13.44 z" /></g><g
           transform="translate(311.666,0.7798)"
           id="g44"><path
             id="path46"
             style="fill:#112146;fill-opacity:1;fill-rule:nonzero;stroke:none"
             d="m 0,0 h -31.618 v 41.999 h 11.399 V 10.5 L 0,10.5 Z" /></g></g></g><g
       id="g48"><g
         clip-path="url(#clipPath54)"
         id="g50"><g
           id="g56"><g
             id="g58"><path
               id="path66"
               style="fill:url(#linearGradient64);stroke:none"
               d="m 109.931,205.027 v -2.764 c 0,-4.995 0.872,-9.752 2.414,-14.121 v 0 c 4.934,-13.965 16.94,-23.839 30.994,-23.839 v 0 c 5.611,0 10.895,1.573 15.534,4.352 v 0 c 3.313,1.984 6.298,4.584 8.836,7.665 v 0 c 0.507,0.616 0.998,1.251 1.468,1.904 v 0 c 1.413,1.961 2.657,4.085 3.708,6.343 v 0 c 0.016,0.044 -7.374,1.882 -7.912,1.978 v 0 c -4.572,0.818 -8.53,1.29 -12.818,1.558 v 0 c -5.988,0.373 -11.976,0.642 -17.844,2.422 v 0 c -9.116,2.768 -17.415,7.782 -24.263,14.389 v 0 c -0.046,0.045 -0.117,0.113 -0.117,0.113 z" /></g></g></g></g><g
       id="g68"><g
         clip-path="url(#clipPath74)"
         id="g70"><g
           id="g76"><g
             id="g78"><path
               id="path86"
               style="fill:url(#linearGradient84);stroke:none"
               d="m 109.931,92.513 h 0.071 l -0.071,0.061 z" /></g></g></g></g><g
       id="g88"><g
         clip-path="url(#clipPath94)"
         id="g90"><g
           id="g96"><g
             id="g98"><path
               id="path108"
               style="fill:url(#linearGradient106);stroke:none"
               d="m 153.846,116.45 -1.221,-1.572 c -0.014,-0.017 -0.152,-0.195 -0.43,-0.553 v 0 C 138.187,96.285 112.063,92.831 110.12,92.597 v 0 c -0.076,-0.009 -0.189,-0.023 -0.189,-0.023 v 0 -0.061 h 42.213 c 7.993,0 15.224,1.393 21.574,3.929 v 0 c 6.791,11.552 6.626,25.677 0.673,38.859 v 0 c -1.577,-10.504 -8.332,-17.99 -20.545,-18.851" /></g></g></g></g><g
       id="g110"><g
         clip-path="url(#clipPath116)"
         id="g112"><g
           id="g118"><g
             id="g120"><path
               id="path130"
               style="fill:url(#linearGradient128);stroke:none"
               d="m 169.177,178.224 c -0.47,-0.653 -0.961,-1.288 -1.468,-1.904 v 0 c -2.538,-3.081 -5.523,-5.681 -8.836,-7.665 v 0 c -4.639,-2.779 -9.923,-4.352 -15.534,-4.352 v 0 h 8.122 c 8.656,0 14.831,-3.04 18.643,-8.101 v 0 c 1.718,-2.28 2.918,-4.995 3.678,-8.009 v 0 c -0.051,0.23 -0.089,0.429 -0.144,0.674 v 0 c 8.44,-8.504 18.165,-13.01 27.717,-15.078 v 0 c 0.235,2.122 0.38,4.293 0.38,6.538 v 0 c 0,9.909 -2.353,18.633 -6.621,25.842 v 0 c -4.98,8.408 -12.576,14.75 -22.229,18.398 v 0 c -1.051,-2.258 -2.295,-4.382 -3.708,-6.343" /></g></g></g></g><g
       id="g132"><g
         clip-path="url(#clipPath138)"
         id="g134"><g
           id="g140"><g
             id="g142"><path
               id="path150"
               style="fill:url(#linearGradient148);stroke:none"
               d="m 173.782,148.193 c 0.193,-0.766 0.34,-1.561 0.471,-2.367 v 0 c 0.092,-0.514 0.17,-0.983 0.231,-1.404 v 0 c 0.317,-2.183 0.27,-3.235 0.27,-4.095 v 0 c 0,-1.737 -0.122,-3.416 -0.363,-5.026 v 0 c 5.953,-13.182 6.118,-27.307 -0.673,-38.859 v 0 c 15.57,6.217 25.663,19.515 27.637,37.347 v 0 c -9.552,2.068 -19.329,6.651 -27.769,15.154 v 0 c 0.055,-0.245 0.145,-0.52 0.196,-0.75" /></g></g></g></g><g
       id="g152"><g
         clip-path="url(#clipPath158)"
         id="g154"><g
           id="g160"><g
             id="g162"><path
               id="path172"
               style="fill:url(#linearGradient170);stroke:none"
               d="m 109.93,153.381 c 0,-0.797 0.06,-1.577 0.103,-2.362 v 0 h -0.031 V 116.352 H 109.93 V 92.574 c 0,0 0.114,0.014 0.19,0.023 v 0 c 1.943,0.234 28.067,3.688 42.075,21.728 v 0 c 0.278,0.358 0.416,0.536 0.43,0.553 v 0 l 1.221,1.573 c -0.285,-0.005 -8.583,-0.024 -17.888,-0.044 v 0 24.788 c -0.549,0.141 -1.099,0.281 -1.647,0.448 v 0 c -6.638,2.015 -12.833,5.233 -18.358,9.376 v 0 c -2.064,1.549 -4.042,3.215 -5.905,5.011 v 0 c -0.046,0.046 -0.118,0.115 -0.118,0.115 v 0 z" /></g></g></g></g></g></svg>