<?xml version="1.0" encoding="UTF-8" standalone="no"?>
<svg
   xmlns:dc="http://purl.org/dc/elements/1.1/"
   xmlns:cc="http://creativecommons.org/ns#"
   xmlns:rdf="http://www.w3.org/1999/02/22-rdf-syntax-ns#"
   xmlns:svg="http://www.w3.org/2000/svg"
   xmlns="http://www.w3.org/2000/svg"
   viewBox="0 0 122.4056 150.01868"
   height="150.01868"
   width="122.4056"
   xml:space="preserve"
   id="svg2"
   version="1.1"><metadata
     id="metadata8"><rdf:RDF><cc:Work
         rdf:about=""><dc:format>image/svg+xml</dc:format><dc:type
           rdf:resource="http://purl.org/dc/dcmitype/StillImage" /></cc:Work></rdf:RDF></metadata><defs
     id="defs6"><clipPath
       id="clipPath18"
       clipPathUnits="userSpaceOnUse"><path
         id="path16"
         d="M 0,112.514 H 91.804 V 0 H 0 Z" /></clipPath></defs><g
     transform="matrix(1.3333333,0,0,-1.3333333,0,150.01867)"
     id="g10"><g
       id="g12"><g
         clip-path="url(#clipPath18)"
         id="g14"><g
           transform="translate(85.1829,73.6561)"
           id="g20"><path
             id="path22"
             style="fill:#000000;fill-opacity:1;fill-rule:nonzero;stroke:none"
             d="m 0,0 c -4.98,8.409 -12.576,14.751 -22.229,18.399 v 0 c 0.016,0.043 -7.374,1.881 -7.912,1.977 -4.572,0.819 -8.53,1.29 -12.818,1.558 -5.988,0.373 -11.977,0.642 -17.844,2.423 -9.117,2.767 -17.414,7.782 -24.262,14.388 -0.047,0.045 -0.118,0.113 -0.118,0.113 v -2.763 c 0,-4.996 0.871,-9.753 2.415,-14.121 4.933,-13.966 16.939,-23.84 30.994,-23.84 h 8.122 c 8.655,0 14.83,-3.039 18.643,-8.101 1.717,-2.28 2.918,-4.994 3.677,-8.009 0.193,-0.766 0.34,-1.56 0.472,-2.366 0.092,-0.515 0.169,-0.984 0.23,-1.405 0.317,-2.183 0.27,-3.235 0.27,-4.095 0,-1.737 -0.121,-3.416 -0.363,-5.026 -1.576,-10.504 -8.332,-17.991 -20.545,-18.85 l -10e-4,-10e-4 10e-4,10e-4 c -0.285,-0.005 -8.583,-0.024 -17.888,-0.044 v 24.788 c -0.549,0.141 -1.099,0.282 -1.647,0.448 -6.637,2.015 -12.832,5.233 -18.358,9.377 -2.064,1.548 -4.042,3.215 -5.904,5.011 -0.047,0.045 -0.118,0.114 -0.118,0.114 v -2.764 c 0,-0.797 0.059,-1.577 0.102,-2.361 h -0.031 v -34.668 h -0.071 v -23.777 c 0,0 0.113,0.014 0.188,0.023 l 0.012,0.006 -0.011,-0.006 c -0.076,-0.01 -0.189,-0.023 -0.189,-0.023 v -0.062 h 0.071 42.142 c 7.993,0 15.224,1.394 21.574,3.929 15.57,6.218 25.663,19.515 27.638,37.348 0.235,2.121 0.379,4.292 0.379,6.537 C 6.621,-15.933 4.269,-7.209 0,0" /></g></g></g></g></svg>