<?xml version="1.0" encoding="UTF-8" standalone="no"?>
<svg
   xmlns:dc="http://purl.org/dc/elements/1.1/"
   xmlns:cc="http://creativecommons.org/ns#"
   xmlns:rdf="http://www.w3.org/1999/02/22-rdf-syntax-ns#"
   xmlns:svg="http://www.w3.org/2000/svg"
   xmlns="http://www.w3.org/2000/svg"
   viewBox="0 0 415.55466 271.28934"
   height="271.28934"
   width="415.55466"
   xml:space="preserve"
   id="svg2"
   version="1.1"><metadata
     id="metadata8"><rdf:RDF><cc:Work
         rdf:about=""><dc:format>image/svg+xml</dc:format><dc:type
           rdf:resource="http://purl.org/dc/dcmitype/StillImage" /></cc:Work></rdf:RDF></metadata><defs
     id="defs6"><clipPath
       id="clipPath18"
       clipPathUnits="userSpaceOnUse"><path
         id="path16"
         d="M 0,203.467 H 311.666 V 0 H 0 Z" /></clipPath></defs><g
     transform="matrix(1.3333333,0,0,-1.3333333,0,271.28933)"
     id="g10"><g
       id="g12"><g
         clip-path="url(#clipPath18)"
         id="g14"><g
           transform="translate(195.1138,165.3889)"
           id="g20"><path
             id="path22"
             style="fill:#ffffff;fill-opacity:1;fill-rule:nonzero;stroke:none"
             d="m 0,0 c -4.98,8.409 -12.576,14.751 -22.229,18.399 v 0 c 0.016,0.043 -7.374,1.881 -7.912,1.977 -4.572,0.819 -8.53,1.29 -12.818,1.558 -5.988,0.373 -11.977,0.642 -17.844,2.423 -9.117,2.767 -17.414,7.782 -24.262,14.388 -0.047,0.045 -0.118,0.113 -0.118,0.113 v -2.763 c 0,-4.996 0.871,-9.753 2.415,-14.121 4.933,-13.966 16.939,-23.84 30.994,-23.84 h 8.122 c 8.655,0 14.83,-3.039 18.643,-8.101 1.717,-2.28 2.918,-4.994 3.677,-8.009 0.193,-0.766 0.34,-1.56 0.472,-2.366 0.092,-0.515 0.169,-0.984 0.23,-1.405 0.317,-2.183 0.27,-3.235 0.27,-4.095 0,-1.737 -0.121,-3.416 -0.363,-5.026 -1.576,-10.504 -8.332,-17.991 -20.545,-18.85 l -10e-4,-10e-4 10e-4,10e-4 c -0.285,-0.005 -8.583,-0.024 -17.888,-0.044 v 24.788 c -0.549,0.141 -1.099,0.282 -1.647,0.448 -6.637,2.015 -12.832,5.233 -18.358,9.377 -2.064,1.548 -4.042,3.215 -5.904,5.011 -0.047,0.045 -0.118,0.114 -0.118,0.114 v -2.764 c 0,-0.797 0.059,-1.577 0.102,-2.361 h -0.031 v -34.668 h -0.071 v -23.777 c 0,0 0.113,0.014 0.188,0.023 l 0.012,0.006 -0.011,-0.006 c -0.076,-0.01 -0.189,-0.023 -0.189,-0.023 v -0.062 h 0.071 42.142 c 7.993,0 15.224,1.394 21.574,3.929 15.57,6.218 25.663,19.515 27.638,37.348 0.235,2.121 0.379,4.292 0.379,6.537 C 6.621,-15.933 4.269,-7.209 0,0" /></g><g
           transform="translate(11.3994,31.5288)"
           id="g24"><path
             id="path26"
             style="fill:#ffffff;fill-opacity:1;fill-rule:nonzero;stroke:none"
             d="m 0,0 v -21.059 h 6.84 c 6.899,0 10.229,4.47 10.229,10.529 C 17.069,-4.38 13.739,0 6.84,0 Z m 28.919,-10.53 c 0,-12.659 -8.64,-20.999 -21.779,-20.999 H -11.399 V 10.47 H 7.14 c 13.139,0 21.779,-8.34 21.779,-21" /></g><g
           transform="translate(58.1694,20.999)"
           id="g28"><path
             id="path30"
             style="fill:#ffffff;fill-opacity:1;fill-rule:nonzero;stroke:none"
             d="m 0,0 c 0,-6.419 4.229,-10.859 10.35,-10.859 6.119,0 10.349,4.44 10.349,10.859 0,6.42 -4.23,10.86 -10.349,10.86 C 4.229,10.86 0,6.42 0,0 m 32.548,0 c 0,-12.54 -9.209,-21.779 -22.198,-21.779 -12.99,0 -22.2,9.239 -22.2,21.779 0,12.54 9.21,21.779 22.2,21.779 12.989,0 22.198,-9.239 22.198,-21.779" /></g><g
           transform="translate(138.0576,32.1289)"
           id="g32"><path
             id="path34"
             style="fill:#ffffff;fill-opacity:1;fill-rule:nonzero;stroke:none"
             d="m 0,0 -10.11,-5.58 c -2.039,3.48 -5.16,5.31 -9.239,5.31 -5.82,0 -10.14,-4.44 -10.14,-10.86 0,-7.169 4.98,-10.859 10.17,-10.859 3.989,0 7.199,1.8 9.479,5.28 l 9.36,-6.541 c -3.96,-5.939 -10.38,-9.659 -18.689,-9.659 -12.99,0 -22.169,9 -22.169,21.779 0,12.78 9.179,21.779 22.169,21.779 C -10.95,10.649 -3.66,6.72 0,0" /></g><g
           transform="translate(159.9282,16.0796)"
           id="g36"><path
             id="path38"
             style="fill:#ffffff;fill-opacity:1;fill-rule:nonzero;stroke:none"
             d="M 0,0 H -3.24 V -16.08 H -14.639 V 25.919 H -3.24 v -15.78 h 3.301 l 10.588,15.78 h 13.86 L 9.3,5.43 25.859,-16.08 H 11.85 Z" /></g><g
           transform="translate(220.167,29.0088)"
           id="g40"><path
             id="path42"
             style="fill:#ffffff;fill-opacity:1;fill-rule:nonzero;stroke:none"
             d="m 0,0 c -2.76,1.56 -6.93,3.51 -12.119,3.51 -3.061,0 -5.401,-0.84 -5.401,-2.73 0,-2.37 4.291,-2.61 8.581,-3.45 l 1.349,-0.27 c 8.67,-1.68 13.08,-5.85 13.08,-12.299 0,-10.62 -8.969,-14.55 -17.91,-14.55 -7.529,0 -14.369,1.8 -19.169,5.22 l 5.58,9.299 c 3.33,-2.009 7.35,-4.319 13.739,-4.319 3.06,0 5.31,0.84 5.31,2.91 0,2.19 -2.609,2.579 -7.829,3.48 l -1.59,0.27 c -9.66,1.65 -13.68,5.819 -13.47,13.259 0.21,8.04 6.96,13.409 17.039,13.409 5.491,0 10.44,-0.57 17.73,-4.409 z" /></g><g
           transform="translate(246.8682,18.1792)"
           id="g44"><path
             id="path46"
             style="fill:#ffffff;fill-opacity:1;fill-rule:nonzero;stroke:none"
             d="M 0,0 H 8.609 L 4.319,12.419 Z M 27.028,-18.179 H 14.939 l -2.79,8.01 H -3.54 l -2.76,-8.01 H -18.209 L -2.31,23.819 h 13.44 z" /></g><g
           transform="translate(311.666)"
           id="g48"><path
             id="path50"
             style="fill:#ffffff;fill-opacity:1;fill-rule:nonzero;stroke:none"
             d="m 0,0 h -31.618 v 41.999 h 11.399 V 10.5 L 0,10.5 Z" /></g></g></g></g></svg>