<?xml version="1.0" encoding="UTF-8" standalone="no"?>
<svg
   xmlns:dc="http://purl.org/dc/elements/1.1/"
   xmlns:cc="http://creativecommons.org/ns#"
   xmlns:rdf="http://www.w3.org/1999/02/22-rdf-syntax-ns#"
   xmlns:svg="http://www.w3.org/2000/svg"
   xmlns="http://www.w3.org/2000/svg"
   viewBox="0 0 578.97998 93.333336"
   height="93.333336"
   width="578.97998"
   xml:space="preserve"
   id="svg2"
   version="1.1"><metadata
     id="metadata8"><rdf:RDF><cc:Work
         rdf:about=""><dc:format>image/svg+xml</dc:format><dc:type
           rdf:resource="http://purl.org/dc/dcmitype/StillImage" /></cc:Work></rdf:RDF></metadata><defs
     id="defs6"><clipPath
       id="clipPath18"
       clipPathUnits="userSpaceOnUse"><path
         id="path16"
         d="M 0,70 H 434.235 V 0 H 0 Z" /></clipPath><clipPath
       id="clipPath50"
       clipPathUnits="userSpaceOnUse"><path
         id="path48"
         d="m 0,70 v -1.689 c 0,-3.054 0.533,-5.962 1.476,-8.632 v 0 C 4.492,51.143 11.831,45.106 20.422,45.106 v 0 c 3.43,0 6.66,0.962 9.495,2.661 v 0 c 2.026,1.213 3.85,2.802 5.402,4.685 v 0 c 0.309,0.376 0.609,0.765 0.897,1.165 v 0 c 0.864,1.197 1.624,2.496 2.266,3.877 v 0 c 0.01,0.026 -4.507,1.149 -4.836,1.208 v 0 c -2.795,0.501 -5.214,0.789 -7.836,0.953 v 0 c -3.659,0.228 -7.32,0.392 -10.907,1.481 v 0 C 9.33,62.827 4.258,65.893 0.072,69.931 v 0 C 0.043,69.959 0,70 0,70 Z" /></clipPath><linearGradient
       id="linearGradient60"
       spreadMethod="pad"
       gradientTransform="matrix(42.472576,0,0,-42.472576,-1.5347273,57.553242)"
       gradientUnits="userSpaceOnUse"
       y2="0"
       x2="1"
       y1="0"
       x1="0"><stop
         id="stop56"
         offset="0"
         style="stop-opacity:1;stop-color:#ff0d57" /><stop
         id="stop58"
         offset="1"
         style="stop-opacity:1;stop-color:#112146" /></linearGradient><clipPath
       id="clipPath70"
       clipPathUnits="userSpaceOnUse"><path
         id="path68"
         d="M 0,1.222 H 0.043 L 0,1.26 Z" /></clipPath><linearGradient
       id="linearGradient80"
       spreadMethod="pad"
       gradientTransform="matrix(0,-58.45628,-58.45628,0,0.0216324,59.678928)"
       gradientUnits="userSpaceOnUse"
       y2="0"
       x2="1"
       y1="0"
       x1="0"><stop
         id="stop76"
         offset="0"
         style="stop-opacity:1;stop-color:#ff0d57" /><stop
         id="stop78"
         offset="1"
         style="stop-opacity:1;stop-color:#112146" /></linearGradient><clipPath
       id="clipPath90"
       clipPathUnits="userSpaceOnUse"><path
         id="path88"
         d="m 26.844,15.855 -0.747,-0.961 c -0.008,-0.011 -0.092,-0.119 -0.262,-0.337 v 0 C 17.272,3.529 1.303,1.417 0.115,1.274 v 0 C 0.069,1.269 0,1.26 0,1.26 v 0 -0.038 h 25.804 c 4.885,0 9.306,0.852 13.188,2.402 v 0 c 4.15,7.062 4.05,15.696 0.411,23.754 v 0 C 38.439,20.957 34.31,16.381 26.844,15.855" /></clipPath><linearGradient
       id="linearGradient102"
       spreadMethod="pad"
       gradientTransform="matrix(26.619583,0,0,-26.619583,16.699713,14.300476)"
       gradientUnits="userSpaceOnUse"
       y2="0"
       x2="1"
       y1="0"
       x1="0"><stop
         id="stop96"
         offset="0"
         style="stop-opacity:1;stop-color:#ff0d57" /><stop
         id="stop98"
         offset="0.880976"
         style="stop-opacity:1;stop-color:#112146" /><stop
         id="stop100"
         offset="1"
         style="stop-opacity:1;stop-color:#112146" /></linearGradient><clipPath
       id="clipPath112"
       clipPathUnits="userSpaceOnUse"><path
         id="path110"
         d="m 36.216,53.617 c -0.288,-0.4 -0.588,-0.789 -0.897,-1.165 v 0 C 33.767,50.569 31.943,48.98 29.917,47.767 v 0 c -2.835,-1.699 -6.065,-2.661 -9.495,-2.661 v 0 h 4.964 c 5.291,0 9.067,-1.857 11.397,-4.952 v 0 c 1.049,-1.394 1.784,-3.052 2.247,-4.896 v 0 C 39,35.4 38.976,35.521 38.943,35.671 v 0 c 5.159,-5.198 11.103,-7.953 16.942,-9.216 v 0 c 0.144,1.296 0.233,2.623 0.233,3.996 v 0 c 0,6.057 -1.438,11.389 -4.048,15.796 v 0 c -3.043,5.14 -7.687,9.017 -13.588,11.247 v 0 C 37.84,56.113 37.08,54.814 36.216,53.617" /></clipPath><linearGradient
       id="linearGradient124"
       spreadMethod="pad"
       gradientTransform="matrix(51.36174,8.5961075,8.5961075,-51.36174,16.336836,36.81134)"
       gradientUnits="userSpaceOnUse"
       y2="0"
       x2="1"
       y1="0"
       x1="0"><stop
         id="stop118"
         offset="0"
         style="stop-opacity:1;stop-color:#ff0d57" /><stop
         id="stop120"
         offset="0.749596"
         style="stop-opacity:1;stop-color:#112146" /><stop
         id="stop122"
         offset="1"
         style="stop-opacity:1;stop-color:#112146" /></linearGradient><clipPath
       id="clipPath134"
       clipPathUnits="userSpaceOnUse"><path
         id="path132"
         d="m 39.03,35.258 c 0.118,-0.468 0.208,-0.954 0.289,-1.446 v 0 c 0.056,-0.314 0.104,-0.601 0.141,-0.858 v 0 c 0.193,-1.335 0.164,-1.979 0.164,-2.503 v 0 c 0,-1.062 -0.073,-2.089 -0.221,-3.073 v 0 C 43.042,19.32 43.142,10.686 38.992,3.624 v 0 c 9.517,3.801 15.687,11.93 16.893,22.831 v 0 c -5.839,1.263 -11.815,4.064 -16.974,9.262 v 0 C 38.945,35.567 39,35.4 39.03,35.258" /></clipPath><linearGradient
       id="linearGradient144"
       spreadMethod="pad"
       gradientTransform="matrix(0,-40.254158,-40.254158,0,47.398209,48.370575)"
       gradientUnits="userSpaceOnUse"
       y2="0"
       x2="1"
       y1="0"
       x1="0"><stop
         id="stop140"
         offset="0"
         style="stop-opacity:1;stop-color:#ff0d57" /><stop
         id="stop142"
         offset="1"
         style="stop-opacity:1;stop-color:#112146" /></linearGradient><clipPath
       id="clipPath154"
       clipPathUnits="userSpaceOnUse"><path
         id="path152"
         d="m 0,38.43 c 0,-0.487 0.036,-0.964 0.062,-1.444 v 0 H 0.043 V 15.795 L 0,15.795 V 1.26 c 0,0 0.069,0.009 0.115,0.014 v 0 c 1.188,0.143 17.157,2.255 25.72,13.283 v 0 c 0.17,0.218 0.254,0.326 0.262,0.337 v 0 l 0.747,0.961 C 26.67,15.853 21.597,15.841 15.909,15.828 v 0 15.153 c -0.335,0.086 -0.671,0.173 -1.006,0.274 v 0 c -4.057,1.231 -7.844,3.199 -11.222,5.731 v 0 C 2.419,37.933 1.21,38.952 0.072,40.05 v 0 C 0.043,40.077 0,40.119 0,40.119 v 0 z" /></clipPath><linearGradient
       id="linearGradient166"
       spreadMethod="pad"
       gradientTransform="matrix(19.602095,-31.8969,-31.8969,-19.602095,-5.2021451,38.86346)"
       gradientUnits="userSpaceOnUse"
       y2="0"
       x2="1"
       y1="0"
       x1="0"><stop
         id="stop160"
         offset="0"
         style="stop-opacity:1;stop-color:#ff0d57" /><stop
         id="stop162"
         offset="0.749596"
         style="stop-opacity:1;stop-color:#112146" /><stop
         id="stop164"
         offset="1"
         style="stop-opacity:1;stop-color:#112146" /></linearGradient></defs><g
     transform="matrix(1.3333333,0,0,-1.3333333,0,93.333333)"
     id="g10"><g
       id="g12"><g
         clip-path="url(#clipPath18)"
         id="g14"><g
           transform="translate(81.0107,30.3468)"
           id="g20"><path
             id="path22"
             style="fill:#112146;fill-opacity:1;fill-rule:nonzero;stroke:none"
             d="m 0,0 c 0,-8.945 5.893,-15.132 14.421,-15.132 8.527,0 14.421,6.187 14.421,15.132 0,8.946 -5.894,15.132 -14.421,15.132 C 5.893,15.132 0,8.946 0,0 m 45.353,0 c 0,-17.473 -12.832,-30.347 -30.932,-30.347 -18.1,0 -30.932,12.874 -30.932,30.347 0,17.473 12.832,30.347 30.932,30.347 18.1,0 30.932,-12.874 30.932,-30.347" /></g><g
           transform="translate(192.3276,45.8553)"
           id="g24"><path
             id="path26"
             style="fill:#112146;fill-opacity:1;fill-rule:nonzero;stroke:none"
             d="m 0,0 -14.087,-7.775 c -2.842,4.849 -7.19,7.399 -12.874,7.399 -8.11,0 -14.129,-6.187 -14.129,-15.132 0,-9.99 6.939,-15.132 14.17,-15.132 5.56,0 10.032,2.508 13.209,7.357 l 13.042,-9.113 c -5.518,-8.276 -14.463,-13.459 -26.042,-13.459 -18.099,0 -30.89,12.54 -30.89,30.347 0,17.807 12.791,30.347 30.89,30.347 C -15.257,14.839 -5.1,9.363 0,0" /></g><g
           transform="translate(222.8024,23.492)"
           id="g28"><path
             id="path30"
             style="fill:#112146;fill-opacity:1;fill-rule:nonzero;stroke:none"
             d="M 0,0 H -4.514 V -22.405 H -20.398 V 36.116 H -4.514 V 14.128 H 0.084 L 14.839,36.116 H 34.151 L 12.958,7.566 36.032,-22.405 H 16.511 Z" /></g><g
           transform="translate(306.7397,41.5077)"
           id="g32"><path
             id="path34"
             style="fill:#112146;fill-opacity:1;fill-rule:nonzero;stroke:none"
             d="m 0,0 c -3.845,2.174 -9.656,4.891 -16.887,4.891 -4.265,0 -7.525,-1.171 -7.525,-3.804 0,-3.302 5.978,-3.637 11.956,-4.807 l 1.88,-0.377 c 12.081,-2.34 18.226,-8.15 18.226,-17.138 0,-14.797 -12.498,-20.273 -24.956,-20.273 -10.491,0 -20.022,2.508 -26.71,7.274 l 7.775,12.957 c 4.64,-2.8 10.241,-6.019 19.145,-6.019 4.263,0 7.398,1.171 7.398,4.055 0,3.052 -3.636,3.594 -10.909,4.849 l -2.216,0.376 c -13.46,2.299 -19.061,8.109 -18.768,18.476 0.292,11.202 9.698,18.684 23.742,18.684 7.65,0 14.546,-0.794 24.704,-6.144 z" /></g><g
           transform="translate(343.9453,26.4176)"
           id="g36"><path
             id="path38"
             style="fill:#112146;fill-opacity:1;fill-rule:nonzero;stroke:none"
             d="M 0,0 H 11.996 L 6.019,17.305 Z M 37.662,-25.331 H 20.817 L 16.929,-14.17 H -4.933 L -8.778,-25.331 H -25.373 L -3.218,33.19 h 18.726 z" /></g><g
           transform="translate(434.2353,1.0866)"
           id="g40"><path
             id="path42"
             style="fill:#112146;fill-opacity:1;fill-rule:nonzero;stroke:none"
             d="m 0,0 h -44.057 v 58.521 h 15.884 V 14.63 L 0,14.63 Z" /></g></g></g><g
       id="g44"><g
         clip-path="url(#clipPath50)"
         id="g46"><g
           id="g52"><g
             id="g54"><path
               id="path62"
               style="fill:url(#linearGradient60);stroke:none"
               d="m 0,70 v -1.689 c 0,-3.054 0.533,-5.962 1.476,-8.632 v 0 C 4.492,51.143 11.831,45.106 20.422,45.106 v 0 c 3.43,0 6.66,0.962 9.495,2.661 v 0 c 2.026,1.213 3.85,2.802 5.402,4.685 v 0 c 0.309,0.376 0.609,0.765 0.897,1.165 v 0 c 0.864,1.197 1.624,2.496 2.266,3.877 v 0 c 0.01,0.026 -4.507,1.149 -4.836,1.208 v 0 c -2.795,0.501 -5.214,0.789 -7.836,0.953 v 0 c -3.659,0.228 -7.32,0.392 -10.907,1.481 v 0 C 9.33,62.827 4.258,65.893 0.072,69.931 v 0 C 0.043,69.959 0,70 0,70 Z" /></g></g></g></g><g
       id="g64"><g
         clip-path="url(#clipPath70)"
         id="g66"><g
           id="g72"><g
             id="g74"><path
               id="path82"
               style="fill:url(#linearGradient80);stroke:none"
               d="M 0,1.222 H 0.043 L 0,1.26 Z" /></g></g></g></g><g
       id="g84"><g
         clip-path="url(#clipPath90)"
         id="g86"><g
           id="g92"><g
             id="g94"><path
               id="path104"
               style="fill:url(#linearGradient102);stroke:none"
               d="m 26.844,15.855 -0.747,-0.961 c -0.008,-0.011 -0.092,-0.119 -0.262,-0.337 v 0 C 17.272,3.529 1.303,1.417 0.115,1.274 v 0 C 0.069,1.269 0,1.26 0,1.26 v 0 -0.038 h 25.804 c 4.885,0 9.306,0.852 13.188,2.402 v 0 c 4.15,7.062 4.05,15.696 0.411,23.754 v 0 C 38.439,20.957 34.31,16.381 26.844,15.855" /></g></g></g></g><g
       id="g106"><g
         clip-path="url(#clipPath112)"
         id="g108"><g
           id="g114"><g
             id="g116"><path
               id="path126"
               style="fill:url(#linearGradient124);stroke:none"
               d="m 36.216,53.617 c -0.288,-0.4 -0.588,-0.789 -0.897,-1.165 v 0 C 33.767,50.569 31.943,48.98 29.917,47.767 v 0 c -2.835,-1.699 -6.065,-2.661 -9.495,-2.661 v 0 h 4.964 c 5.291,0 9.067,-1.857 11.397,-4.952 v 0 c 1.049,-1.394 1.784,-3.052 2.247,-4.896 v 0 C 39,35.4 38.976,35.521 38.943,35.671 v 0 c 5.159,-5.198 11.103,-7.953 16.942,-9.216 v 0 c 0.144,1.296 0.233,2.623 0.233,3.996 v 0 c 0,6.057 -1.438,11.389 -4.048,15.796 v 0 c -3.043,5.14 -7.687,9.017 -13.588,11.247 v 0 C 37.84,56.113 37.08,54.814 36.216,53.617" /></g></g></g></g><g
       id="g128"><g
         clip-path="url(#clipPath134)"
         id="g130"><g
           id="g136"><g
             id="g138"><path
               id="path146"
               style="fill:url(#linearGradient144);stroke:none"
               d="m 39.03,35.258 c 0.118,-0.468 0.208,-0.954 0.289,-1.446 v 0 c 0.056,-0.314 0.104,-0.601 0.141,-0.858 v 0 c 0.193,-1.335 0.164,-1.979 0.164,-2.503 v 0 c 0,-1.062 -0.073,-2.089 -0.221,-3.073 v 0 C 43.042,19.32 43.142,10.686 38.992,3.624 v 0 c 9.517,3.801 15.687,11.93 16.893,22.831 v 0 c -5.839,1.263 -11.815,4.064 -16.974,9.262 v 0 C 38.945,35.567 39,35.4 39.03,35.258" /></g></g></g></g><g
       id="g148"><g
         clip-path="url(#clipPath154)"
         id="g150"><g
           id="g156"><g
             id="g158"><path
               id="path168"
               style="fill:url(#linearGradient166);stroke:none"
               d="m 0,38.43 c 0,-0.487 0.036,-0.964 0.062,-1.444 v 0 H 0.043 V 15.795 L 0,15.795 V 1.26 c 0,0 0.069,0.009 0.115,0.014 v 0 c 1.188,0.143 17.157,2.255 25.72,13.283 v 0 c 0.17,0.218 0.254,0.326 0.262,0.337 v 0 l 0.747,0.961 C 26.67,15.853 21.597,15.841 15.909,15.828 v 0 15.153 c -0.335,0.086 -0.671,0.173 -1.006,0.274 v 0 c -4.057,1.231 -7.844,3.199 -11.222,5.731 v 0 C 2.419,37.933 1.21,38.952 0.072,40.05 v 0 C 0.043,40.077 0,40.119 0,40.119 v 0 z" /></g></g></g></g></g></svg>