<?xml version="1.0" encoding="UTF-8" standalone="no"?>
<svg
   xmlns:dc="http://purl.org/dc/elements/1.1/"
   xmlns:cc="http://creativecommons.org/ns#"
   xmlns:rdf="http://www.w3.org/1999/02/22-rdf-syntax-ns#"
   xmlns:svg="http://www.w3.org/2000/svg"
   xmlns="http://www.w3.org/2000/svg"
   viewBox="0 0 579.03998 91.884537"
   height="91.884537"
   width="579.03998"
   xml:space="preserve"
   id="svg2"
   version="1.1"><metadata
     id="metadata8"><rdf:RDF><cc:Work
         rdf:about=""><dc:format>image/svg+xml</dc:format><dc:type
           rdf:resource="http://purl.org/dc/dcmitype/StillImage" /></cc:Work></rdf:RDF></metadata><defs
     id="defs6"><clipPath
       id="clipPath18"
       clipPathUnits="userSpaceOnUse"><path
         id="path16"
         d="M 0,68.913 H 434.28 V 0 H 0 Z" /></clipPath></defs><g
     transform="matrix(1.3333333,0,0,-1.3333333,0,91.884533)"
     id="g10"><g
       id="g12"><g
         clip-path="url(#clipPath18)"
         id="g14"><g
           transform="translate(95.4756,14.1287)"
           id="g20"><path
             id="path22"
             style="fill:#ffffff;fill-opacity:1;fill-rule:nonzero;stroke:none"
             d="m 0,0 c -8.528,0 -14.421,6.187 -14.421,15.132 0,8.945 5.893,15.132 14.421,15.132 8.527,0 14.421,-6.187 14.421,-15.132 C 14.421,6.187 8.527,0 0,0 m 0,45.479 c -18.1,0 -30.933,-12.875 -30.933,-30.347 0,-17.473 12.833,-30.347 30.933,-30.347 18.099,0 30.932,12.874 30.932,30.347 0,17.472 -12.833,30.347 -30.932,30.347" /></g><g
           transform="translate(165.4102,44.3926)"
           id="g24"><path
             id="path26"
             style="fill:#ffffff;fill-opacity:1;fill-rule:nonzero;stroke:none"
             d="M 0,0 C 5.685,0 10.032,-2.55 12.874,-7.399 L 26.961,0.376 C 21.861,9.74 11.704,15.215 0.25,15.215 c -18.099,0 -30.89,-12.54 -30.89,-30.347 0,-17.807 12.791,-30.347 30.89,-30.347 11.579,0 20.525,5.183 26.043,13.459 l -13.043,9.113 c -3.176,-4.849 -7.649,-7.357 -13.208,-7.357 -7.232,0 -14.171,5.142 -14.171,15.132 C -14.129,-6.187 -8.109,0 0,0" /></g><g
           transform="translate(256.9973,58.5213)"
           id="g28"><path
             id="path30"
             style="fill:#ffffff;fill-opacity:1;fill-rule:nonzero;stroke:none"
             d="m 0,0 h -19.312 l -14.755,-21.988 h -4.598 V 0 h -15.884 v -58.521 h 15.884 v 22.405 h 4.514 l 16.512,-22.405 h 19.52 l -23.073,29.971 z" /></g><g
           transform="translate(296.2081,36.3247)"
           id="g32"><path
             id="path34"
             style="fill:#ffffff;fill-opacity:1;fill-rule:nonzero;stroke:none"
             d="m 0,0 -1.881,0.376 c -5.977,1.171 -11.955,1.505 -11.955,4.807 0,2.634 3.26,3.804 7.525,3.804 7.231,0 13.041,-2.717 16.887,-4.89 l 6.855,13 c -10.158,5.35 -17.054,6.144 -24.704,6.144 -14.045,0 -23.45,-7.482 -23.743,-18.684 -0.292,-10.367 5.309,-16.177 18.769,-18.476 l 2.216,-0.376 c 7.273,-1.255 10.909,-1.798 10.909,-4.849 0,-2.885 -3.135,-4.056 -7.399,-4.056 -8.903,0 -14.504,3.219 -19.144,6.02 l -7.776,-12.958 c 6.689,-4.765 16.219,-7.273 26.711,-7.273 12.457,0 24.956,5.475 24.956,20.273 C 18.226,-8.151 12.081,-2.34 0,0" /></g><g
           transform="translate(343.9897,25.3311)"
           id="g36"><path
             id="path38"
             style="fill:#ffffff;fill-opacity:1;fill-rule:nonzero;stroke:none"
             d="M 0,0 6.019,17.305 11.996,0 Z m -3.218,33.19 -22.155,-58.521 h 16.595 l 3.845,11.161 h 21.862 l 3.888,-11.161 H 37.662 L 15.509,33.19 Z" /></g><g
           transform="translate(406.1068,14.6302)"
           id="g40"><path
             id="path42"
             style="fill:#ffffff;fill-opacity:1;fill-rule:nonzero;stroke:none"
             d="M 0,0 V 43.891 H -15.884 V -14.63 H 28.173 V 0 Z" /></g><g
           transform="translate(0.1155,0.1116)"
           id="g44"><path
             id="path46"
             style="fill:#ffffff;fill-opacity:1;fill-rule:nonzero;stroke:none"
             d="m 0,0 c -0.046,-0.006 -0.115,-0.014 -0.115,-0.014 v -0.038 h 0.043 25.789 c 4.891,0 9.317,0.853 13.203,2.405 9.528,3.804 15.704,11.942 16.912,22.855 0.144,1.298 0.233,2.626 0.233,4 0,6.064 -1.44,11.403 -4.052,15.814 -3.048,5.146 -7.696,9.027 -13.604,11.26 -0.321,-0.691 -0.321,-0.691 0,0 0.01,0.026 -4.512,1.151 -4.841,1.21 -2.798,0.501 -5.22,0.789 -7.844,0.953 -3.664,0.229 -7.329,0.393 -10.92,1.483 -5.579,1.693 -10.657,4.762 -14.847,8.804 -0.029,0.028 -0.072,0.07 -0.072,0.07 v -1.691 c 0,-3.057 0.533,-5.968 1.477,-8.642 C 4.381,49.923 11.728,43.881 20.329,43.881 H 25.3 c 5.297,0 9.075,-1.861 11.408,-4.958 1.051,-1.395 1.786,-3.056 2.25,-4.901 0.118,-0.469 0.209,-0.955 0.289,-1.448 0.056,-0.315 0.104,-0.602 0.141,-0.86 0.194,-1.336 0.165,-1.98 0.165,-2.506 0,-1.063 -0.074,-2.09 -0.222,-3.075 -0.964,-6.429 -5.098,-11.01 -12.572,-11.536" /></g><g
           transform="translate(26.8739,14.7088)"
           id="g48"><path
             id="path50"
             style="fill:#ffffff;fill-opacity:1;fill-rule:nonzero;stroke:none"
             d="m 0,0 c -0.174,-0.003 -5.252,-0.015 -10.947,-0.027 v 15.169 c -0.336,0.087 -0.672,0.173 -1.007,0.275 -4.062,1.233 -7.853,3.202 -11.235,5.738 -1.263,0.947 -2.473,1.967 -3.613,3.066 -0.029,0.028 -0.072,0.07 -0.072,0.07 v -1.692 c 0,-0.487 0.036,-0.964 0.063,-1.444 h -0.02 V -0.06 h -0.043 v -14.551 c 0,0 0.069,0.008 0.115,0.014" /></g></g></g></g></svg>